<svg width="192" height="49" viewBox="0 0 192 49" fill="none" xmlns="http://www.w3.org/2000/svg">
<g clip-path="url(#clip0)">
<path d="M86.1479 5.04254C86.0385 5.15216 85.8195 5.15216 85.7101 5.26178C85.929 5.15216 86.0385 5.04254 86.1479 5.04254Z" fill="#FFF100"/>
<path d="M73.5602 34.5301C73.2318 33.1051 72.794 32.0089 72.3561 30.5838C71.8088 29.2684 70.2763 25.9798 70.1668 25.6509C69.8385 24.9932 68.7438 22.6912 66.664 19.6218C67.4303 20.8276 68.087 21.9238 68.7438 23.1297C70.6047 26.5279 72.4656 30.2549 73.5602 34.5301Z" fill="#FFF100"/>
<path d="M77.8288 43.8479C77.9383 43.2998 78.0478 42.7517 78.0478 42.094V41.8748C78.0478 41.5459 78.1572 41.217 78.1572 40.8882C78.1572 40.7786 78.1572 40.5593 78.1572 40.4497C78.3762 36.7226 78.1572 32.9956 77.2815 29.3781V29.1589C76.9531 27.7338 76.6247 26.4184 76.4058 25.2126L76.2963 24.8837C75.968 24.226 75.749 23.349 75.8585 22.6913L75.968 22.3625C78.0478 20.7182 80.456 19.5124 82.5358 17.7584L82.8642 17.5392C86.2576 15.2372 89.5415 12.9352 92.9349 10.6332C92.8254 9.31772 92.497 7.89266 92.1686 6.57723C91.8402 5.26179 91.6213 3.94635 91.074 2.95978C90.0888 2.95978 89.432 3.50788 88.8847 3.83674C88.2279 4.16559 87.5712 4.60407 86.8049 4.93293C86.8049 4.93293 86.4765 4.82331 86.1481 5.04255C86.0386 5.15217 85.8197 5.15217 85.7103 5.26179C84.2872 6.02913 81.5506 7.45419 80.3465 8.00228C77.2815 9.64658 74.2165 11.4005 70.8231 13.0448C70.1664 13.3736 68.9623 13.8121 68.8528 14.3602C68.6339 15.2372 69.7285 16.9911 69.9474 17.5392C72.5746 23.5683 74.8733 29.4877 75.968 36.9419C76.1869 38.1477 76.4058 39.9016 76.1869 40.9978L76.0774 41.8748C76.4058 43.1902 74.6544 45.273 75.6396 45.8211C76.0774 46.0403 76.5153 45.6018 76.8437 45.1634C77.0626 44.8345 77.391 44.5056 77.6099 44.5056C77.6099 44.396 77.6099 44.2864 77.7194 44.1768L77.8288 43.8479Z" fill="url(#paint0_linear)"/>
<path d="M90.9645 2.74054C89.9794 2.74054 89.3226 3.28864 88.7753 3.6175C88.1185 3.94636 87.4617 4.38484 86.6954 4.71369C86.6954 4.71369 86.4765 4.82331 86.1481 5.04255C86.0387 5.15217 85.8197 5.15217 85.7103 5.26179C84.2872 6.02913 81.5506 7.45419 80.3465 8.00229C77.2815 9.64658 74.2165 11.4005 70.8231 13.0448C70.1664 13.3736 68.9623 13.8121 68.8528 14.3602C68.6339 15.2372 69.7285 16.9911 69.9474 17.5392C72.5746 23.5683 74.8733 29.4877 75.968 36.9419C76.1869 38.1477 76.4058 39.9016 76.1869 40.9978L76.0774 41.8748C76.4058 43.1902 74.6544 45.273 75.6396 45.8211C75.8585 45.9307 76.0774 45.9307 76.2963 45.7115C76.0774 44.8345 77.2815 43.1902 77.0626 42.094L77.1721 41.217C77.391 40.2305 77.1721 38.4766 76.9531 37.1611C75.8585 29.707 73.4503 23.6779 70.9326 17.7584C70.7137 17.2103 69.838 15.6757 69.7285 14.7987C70.0569 14.4698 71.261 13.8121 71.9178 13.4833C75.2017 11.839 78.1572 9.86582 81.3317 8.22152C82.5358 7.67343 85.2724 6.24837 86.6954 5.48103C86.8049 5.37141 87.0238 5.37141 87.1333 5.26179C87.4617 5.15217 87.5712 5.04255 87.5712 5.04255C88.3374 4.71369 88.9942 4.38483 89.651 3.94636C90.0888 3.72712 90.6362 3.28864 91.1835 3.17902C91.1835 3.0694 91.074 2.95978 90.9645 2.74054Z" fill="#C30075"/>
<path d="M73.5599 34.5302C72.4652 30.3647 70.4949 26.528 68.7435 23.1298C68.0867 22.0336 67.4299 20.8278 66.6636 19.6219C65.2406 17.5392 63.4892 15.1275 61.2999 12.7159C61.1904 12.6063 60.2053 11.1812 60.2053 11.1812C59.8769 10.6331 59.1106 9.64654 59.8769 9.20806L60.0958 9.09844L60.4242 8.87921C61.4094 8.44073 62.504 8.00225 63.5986 7.56377L63.8176 7.67339C67.4299 6.13871 72.5747 4.05594 75.3113 2.95974L75.5302 2.7405C75.9681 2.52126 76.5154 2.30202 77.0627 2.08278C76.0776 1.75393 74.9829 1.31545 73.8883 1.42507C73.0126 1.53469 72.0274 2.1924 71.1517 2.52126C66.6636 4.27518 62.1756 6.02909 57.797 7.67339C55.9362 8.33111 54.5131 8.76959 52.8712 9.64654C52.5428 9.86578 52.5428 10.1946 52.5428 10.3043C52.8712 11.1812 53.8563 10.962 54.7321 11.2908C56.8119 12.2774 58.7822 14.141 60.5337 15.7852C64.9122 20.17 68.4151 24.9933 70.9328 31.2416C71.4801 32.5571 72.0274 33.9821 72.1369 35.2976C72.2463 36.7226 71.699 37.9284 72.3558 38.915C73.2315 39.3535 73.7788 38.3669 74.1072 38.1477V38.2573C74.1072 37.8188 74.1072 37.4899 73.9977 36.8322C73.8883 35.9553 73.7788 35.1879 73.5599 34.5302Z" fill="black"/>
<path d="M86.6956 4.71368C86.6956 4.60406 86.3672 4.2752 85.9294 3.61748L85.8199 3.39824L85.601 3.06938L85.3821 2.85014C85.0537 2.19243 84.6158 1.53471 84.0685 0.98661L83.7401 0.657751C82.9738 3.31178e-05 82.6454 -0.219206 81.6603 0.219272L81.4413 0.328892C81.2224 0.438512 81.0035 0.548132 80.7846 0.548132L80.5656 0.657751C80.3467 0.767371 80.1278 0.876991 79.9088 0.876991L79.5805 0.98661L79.3615 1.09623L79.0331 1.20585C78.3763 1.53471 77.6101 1.75395 76.9533 2.08281C76.406 2.30205 75.9681 2.52129 75.4208 2.74053L75.2019 2.85014C72.4653 3.94634 67.3205 6.13874 63.7082 7.56379L63.4892 7.67341C62.3946 8.00227 61.2999 8.44075 60.3148 8.98885L59.9864 9.20809L59.7675 9.31771C59.0012 9.75618 59.658 10.7428 60.0958 11.2909C60.0958 11.2909 61.081 12.6063 61.1905 12.8255C63.3798 15.2372 65.2407 17.5392 66.5542 19.622C68.5246 22.5817 69.7287 24.9933 70.0571 25.651C70.1665 25.9799 71.699 29.3781 72.2464 30.5839C72.7937 32.009 73.2315 33.1052 73.4505 34.5302C73.5599 35.188 73.7789 35.9553 73.8883 36.9419C73.9978 37.5996 73.9978 37.9284 73.9978 38.3669C73.9978 38.5862 73.9978 38.8054 73.9978 39.1343V39.5727C73.9978 39.9016 73.9978 40.1208 73.7789 40.4497L73.6694 40.6689L73.5599 40.8882C73.5599 40.9978 73.4505 41.1074 73.4505 41.3267L73.341 41.5459L73.4505 41.6555C73.4505 41.7651 73.341 41.9844 73.341 42.2036V42.5325V42.7517L73.4505 42.9709C73.9978 43.7383 74.8735 43.0806 75.4208 42.5325L75.6397 42.3132L75.8587 42.094C76.0776 41.9844 76.1871 41.7651 76.1871 41.7651L76.2965 40.8882C76.5155 39.9016 76.2965 38.1477 76.0776 36.8322C74.983 29.3781 72.5748 23.349 70.0571 17.4296C69.8382 16.8815 68.7435 15.1275 68.9624 14.2506C69.0719 13.7025 70.276 13.264 70.9328 12.9352C74.2167 11.2909 77.2817 9.53695 80.4562 7.89265C81.6603 7.34455 84.3969 5.9195 85.8199 5.15216C86.0388 5.04254 86.1483 4.93292 86.2578 4.93292C86.4767 4.8233 86.6956 4.71368 86.6956 4.71368Z" fill="url(#paint1_linear)"/>
<path d="M81.7698 0.219239L81.5508 0.328858C81.3319 0.438478 81.113 0.548098 80.8941 0.548098L80.6751 0.657717C80.4562 0.767337 80.2373 0.876957 80.0184 0.876957L79.69 0.986576L79.3616 1.0962L79.0332 1.20582C78.3764 1.53468 77.6101 1.75391 76.9534 2.08277C76.406 2.30201 75.9682 2.52125 75.4209 2.74049L75.2019 2.85011C72.4653 3.94631 67.3205 6.1387 63.7082 7.56376L63.5987 7.67338C62.5041 8.00224 61.4094 8.44071 60.4243 8.98881L60.0959 9.20805L59.8769 9.31767C59.1107 9.75615 59.7675 10.7427 60.2053 11.2908C60.2053 11.2908 61.1905 12.6063 61.3 12.8255C63.4893 15.2371 65.3502 17.5391 66.6637 19.6219C68.6341 22.5817 69.8382 24.9933 70.1666 25.651C70.276 25.9799 71.8085 29.3781 72.3559 30.5839C72.9032 32.0089 73.341 33.1051 73.56 34.5302C73.6694 35.1879 73.8884 35.9553 73.9978 36.9418C74.1073 37.5996 74.1073 37.9284 74.1073 38.3669C74.1073 38.5861 74.1073 38.8054 74.1073 39.1342V39.5727C74.1073 39.9016 74.1073 40.1208 73.8884 40.4497L73.7789 40.6689L73.6694 40.8881C73.6694 40.9978 73.56 41.1074 73.56 41.3266L73.4505 41.5459V41.6555C73.4505 41.7651 73.341 41.9843 73.341 42.2036V42.5324V42.7517L73.4505 42.9709C73.6694 43.2998 73.9978 43.4094 74.3262 43.2998V43.1902V42.9709V42.6421C74.3262 42.4228 74.4357 42.3132 74.4357 42.094L74.5451 41.8747L74.6546 41.6555C74.6546 41.5459 74.7641 41.4362 74.7641 41.217L74.8735 40.9978L74.983 40.7785C75.0925 40.4497 75.0925 40.2304 75.2019 39.9016V39.4631C75.2019 39.1342 75.2019 38.915 75.2019 38.6958C75.2019 38.2573 75.2019 37.9284 75.0925 37.2707C74.983 36.2841 74.8735 35.5168 74.6546 34.8591C74.3262 33.434 73.8884 32.3378 73.4505 30.9128C72.9032 29.5973 71.3707 26.3087 71.2612 25.9799C70.9328 25.3221 69.8382 23.0201 67.7584 19.9508C66.3353 17.868 64.5839 15.4564 62.3946 13.1544C62.2852 13.0447 61.3 11.6197 61.3 11.6197C60.9716 11.0716 60.2053 10.085 60.9716 9.64653L61.1905 9.53691C61.1905 9.53691 61.7378 9.20805 61.8473 9.20805C62.8325 8.65995 63.1609 8.55033 64.2555 8.11186L64.5839 8.00224C68.1962 6.46756 72.9032 4.27517 75.6398 3.17897L76.0776 2.95973C76.5155 2.74049 77.0628 2.52125 77.5007 2.30201C78.1575 1.97315 78.7048 1.75391 79.3616 1.42506C80.2373 1.0962 82.2076 -6.85453e-07 82.8644 -6.85453e-07C82.4266 -0.10962 81.9887 0.109619 81.7698 0.219239Z" fill="#FFF100"/>
<path d="M96.8759 8.76959L96.657 8.55036L96.3286 8.33112H96.1097H95.8908L95.5624 8.55036L95.234 8.76959C94.4677 9.31769 93.592 9.86579 92.8258 10.4139C89.5418 12.7159 86.1485 15.0179 82.7551 17.3199L82.4267 17.5392C80.3469 19.2931 77.9387 20.4989 75.8588 22.1432L75.7494 22.4721C75.6399 23.1298 75.8588 24.0067 76.1872 24.6644L76.2967 24.9933C76.6251 26.1991 76.9535 27.5146 77.1724 28.9396V29.1589C78.0481 32.7763 78.267 36.613 78.0481 40.2304C78.0481 40.3401 78.0481 40.5593 78.0481 40.6689C78.0481 40.9978 77.9386 41.3266 77.9386 41.6555V41.8747C77.9386 42.4228 77.8292 43.0806 77.7197 43.6287V44.1768C77.7197 44.2864 77.7197 44.396 77.6103 44.5056C77.3913 45.4922 77.2819 46.4788 76.7345 47.2461L76.6251 47.4653C76.6251 47.575 76.5156 47.7942 76.4062 47.9038V48.1231C76.4062 48.2327 76.4062 48.4519 76.4062 48.5615C76.9535 49.2193 77.7197 48.7808 78.1576 48.3423L78.3765 48.1231C78.9238 47.6846 79.4711 47.1365 80.1279 46.698L80.4563 46.4788C81.7699 45.3826 82.974 44.0671 84.2876 42.8613L84.5065 42.6421C85.2727 41.8747 86.039 41.1074 86.8052 40.3401L87.0242 40.0112C89.7608 36.8322 92.169 33.434 93.9204 29.5973L94.0299 29.2685C94.3583 28.6108 94.5772 27.953 94.7961 27.2953L94.9056 26.9665C95.234 26.0895 95.5624 25.3222 95.7813 24.4452L95.8908 24.1164C96.4381 22.0336 96.9854 20.0604 97.0949 17.9776V17.6488C97.4233 14.6891 97.6422 11.7293 96.8759 8.76959Z" fill="url(#paint2_linear)"/>
<path d="M102.568 29.8166H107.822C109.355 29.8166 111.106 29.8166 111.106 27.6242C111.106 25.5414 109.683 25.3222 108.26 25.3222H102.568V29.8166ZM97.6419 22.4721H109.792C114.937 22.4721 116.251 25.2126 116.251 27.2953C116.251 30.6936 114.171 32.6667 110.23 32.6667H102.568V38.3669H97.6419V22.4721Z" fill="black"/>
<path d="M117.236 22.2528H121.724V38.4766H117.236V22.2528Z" fill="black"/>
<path d="M135.516 32.5572C134.641 32.886 133.765 32.9956 132.889 33.1053L130.262 33.3245C128.729 33.4341 127.854 33.763 127.854 34.8592C127.854 35.9554 128.948 36.5035 130.7 36.5035C132.999 36.5035 135.516 35.5169 135.516 33.5437V32.5572ZM123.913 30.1455C124.46 26.4185 128.292 26.0896 132.013 26.0896C138.362 26.0896 139.785 27.9531 139.785 30.1455V36.065C139.785 37.1612 140.004 37.8189 140.333 38.4766H135.845C135.735 38.0382 135.516 37.5997 135.516 37.1612C133.984 38.4766 131.138 38.9151 129.167 38.9151C125.555 38.9151 123.147 37.8189 123.147 35.0784C123.147 32.2283 126.102 31.5706 128.839 31.3513L133.546 31.0225C134.969 30.9129 135.407 30.6936 135.407 29.8167C135.407 28.8301 134.531 28.3916 131.904 28.3916C130.043 28.3916 129.058 28.5012 128.401 30.1455H123.913Z" fill="black"/>
<path d="M153.906 30.9128C153.359 29.3781 152.045 28.83 150.185 28.83C147.448 28.83 145.806 30.1454 145.806 32.4475C145.806 34.7495 147.448 36.0649 150.185 36.0649C152.155 36.0649 153.687 35.0783 153.906 33.6533H158.504C157.738 37.9284 154.235 38.8054 149.747 38.8054C144.602 38.8054 141.099 36.9419 141.099 32.3378C141.099 27.8434 144.711 25.9799 150.075 25.9799C153.578 25.9799 157.519 26.8568 158.394 30.8032H153.906V30.9128Z" fill="black"/>
<path d="M172.516 31.1321C172.516 30.4744 171.53 28.3916 168.247 28.3916C164.744 28.3916 163.977 30.8032 163.977 31.0225H172.516V31.1321ZM176.785 34.8592C175.471 37.7093 172.406 38.9151 168.247 38.9151C162.883 38.9151 159.27 37.0516 159.27 32.4475C159.27 27.9531 162.883 26.0896 168.247 26.0896C174.158 26.0896 177.004 28.7205 177.004 33.2149V33.5437H163.868C163.868 34.6399 165.182 36.3939 168.247 36.3939C169.998 36.3939 171.312 35.8458 171.968 34.8592H176.785Z" fill="black"/>
<path d="M4.92588 29.8166H10.1802C11.7127 29.8166 13.4641 29.8166 13.4641 27.6242C13.4641 25.5414 12.041 25.3222 10.618 25.3222H4.92588V29.8166ZM0 22.4721H12.1505C17.2953 22.4721 18.6089 25.2126 18.6089 27.2953C18.6089 30.6936 16.5291 32.6667 12.5884 32.6667H4.92588V38.3669H0V22.4721Z" fill="black"/>
<path d="M19.7034 26.528H23.9725V28.83C25.6144 26.9665 26.8185 26.1992 29.4457 26.1992C29.993 26.1992 30.5403 26.1992 31.0876 26.3088V30.0358C30.3214 29.8166 29.4457 29.707 28.57 29.707C25.505 29.707 24.0819 31.0224 24.0819 33.4341V38.5862H19.7034V26.528Z" fill="black"/>
<path d="M32.2919 26.528H36.7799V38.4766H32.2919V26.528ZM32.2919 22.2528H36.7799V24.9933H32.2919V22.2528Z" fill="black"/>
<path d="M50.244 31.6801C50.244 30.0358 49.2588 29.2685 47.2884 29.2685C45.2086 29.2685 43.4572 30.1455 43.4572 32.7763V38.5862H38.9692V26.528H43.2383V28.2819C44.0045 27.2954 46.1938 26.1992 48.8209 26.1992C51.1197 26.1992 54.6225 26.9665 54.6225 30.4743V38.4766H50.1345V31.6801H50.244Z" fill="black"/>
<path d="M58.6727 22.8009H63.1607V26.5279H66.773V29.1588H63.1607V34.7494C63.1607 35.736 63.4891 35.9552 64.6932 35.9552C65.4595 35.9552 66.1162 35.9552 66.8825 35.8456V38.4765C66.0068 38.5861 64.3648 38.6957 63.3796 38.6957C59.1106 38.6957 58.7822 37.2707 58.7822 35.1879V29.1588H55.8266V26.5279H58.6727V22.8009Z" fill="black"/>
<path d="M16.8575 43.1903H18.2806C18.8279 43.1903 19.0468 43.0806 19.0468 42.5325C19.0468 41.9844 18.7184 41.8748 18.39 41.8748H16.967V43.1903H16.8575ZM15.9818 41.2171H18.609C19.5942 41.2171 19.9225 41.8748 19.9225 42.5325C19.9225 43.1903 19.4847 43.848 18.609 43.848H16.8575V45.4923H15.9818V41.2171Z" fill="black"/>
<path d="M24.0821 43.7384L23.3158 41.9844L22.5496 43.7384H24.0821ZM22.878 41.2171H23.9726L25.8335 45.3826H24.8483L24.4105 44.3961H22.4401L22.0023 45.3826H21.0171L22.878 41.2171Z" fill="black"/>
<path d="M29.0079 41.1074C29.6647 41.1074 30.9783 41.217 31.0877 42.4228H30.1026C30.1026 42.094 29.7742 41.7651 29.0079 41.7651C28.4606 41.7651 28.0227 41.9843 28.0227 42.3132C28.0227 43.2998 31.0877 42.3132 31.0877 44.1767C31.0877 45.2729 29.9931 45.4922 29.1174 45.4922C27.5849 45.4922 27.0376 44.9441 27.0376 44.0671H28.0227C28.0227 44.6152 28.4606 44.8345 29.2268 44.8345C29.7742 44.8345 30.212 44.7248 30.212 44.1767C30.212 43.1902 27.147 44.0671 27.147 42.3132C27.147 41.4362 27.9133 41.1074 29.0079 41.1074Z" fill="black"/>
<path d="M34.4814 41.1074C35.1381 41.1074 36.4517 41.217 36.5612 42.4228H35.576C35.576 42.094 35.2476 41.7651 34.4814 41.7651C33.934 41.7651 33.4962 41.9843 33.4962 42.3132C33.4962 43.2998 36.5612 42.3132 36.5612 44.1767C36.5612 45.2729 35.4665 45.4922 34.5908 45.4922C33.0583 45.4922 32.511 44.9441 32.511 44.0671H33.4962C33.4962 44.6152 33.934 44.8345 34.7003 44.8345C35.2476 44.8345 35.6855 44.7248 35.6855 44.1767C35.6855 43.1902 32.6205 44.0671 32.6205 42.3132C32.6205 41.4362 33.3867 41.1074 34.4814 41.1074Z" fill="black"/>
<path d="M38.3126 41.2171H39.1883V45.3826H38.3126V41.2171Z" fill="black"/>
<path d="M44.9896 43.2998C44.9896 42.4228 44.4422 41.7651 43.4571 41.7651C42.4719 41.7651 41.9246 42.4228 41.9246 43.2998C41.9246 44.1767 42.4719 44.8345 43.4571 44.8345C44.4422 44.8345 44.9896 44.2864 44.9896 43.2998ZM40.9394 43.2998C40.9394 42.094 41.5962 41.1074 43.3476 41.1074C45.099 41.1074 45.7558 42.094 45.7558 43.2998C45.7558 44.5056 45.099 45.4922 43.3476 45.4922C41.7056 45.4922 40.9394 44.5056 40.9394 43.2998Z" fill="black"/>
<path d="M47.7264 41.2171H48.7116L51.1198 44.3961H51.2293V41.2171H51.9955V45.3826H51.0104L48.4927 42.3133V45.3826H47.7264V41.2171Z" fill="black"/>
<path d="M56.5929 43.7384L55.8266 41.9844L55.0604 43.7384H56.5929ZM55.3887 41.2171H56.4834L58.3443 45.3826H57.3591L56.9212 44.3961H54.9509L54.513 45.3826H53.5279L55.3887 41.2171Z" fill="black"/>
<path d="M60.643 41.8748H59.1105V41.2171H63.1607V41.8748H61.5188V45.3826H60.643V41.8748Z" fill="black"/>
<path d="M64.6932 41.2171H68.3056V41.8748H65.569V42.971H68.1961V43.6287H65.569V44.7249H68.415V45.3826H64.6932V41.2171Z" fill="black"/>
<path d="M92.1686 43.7384L91.4024 41.9844L90.6361 43.7384H92.1686ZM90.9645 41.2171H92.0591L93.92 45.3826H92.9349L92.497 44.3961H90.5266L90.0888 45.3826H89.1036L90.9645 41.2171Z" fill="black"/>
<path d="M96.2188 44.7249H97.7513C98.1891 44.7249 98.5175 44.6153 98.5175 44.0672C98.5175 43.6287 98.2986 43.5191 97.8607 43.5191H96.1093V44.7249H96.2188ZM96.2188 42.971H97.8607C98.0797 42.971 98.408 42.8614 98.408 42.4229C98.408 42.0941 98.1891 41.8748 97.6418 41.8748H96.1093V42.971H96.2188ZM95.3431 41.2171H98.0797C99.0648 41.2171 99.2838 41.7652 99.2838 42.3133C99.2838 42.8614 98.9554 43.0806 98.7364 43.1903C99.0648 43.2999 99.5027 43.5191 99.5027 44.1768C99.5027 44.6153 99.1743 45.3826 98.0797 45.3826H95.3431V41.2171Z" fill="black"/>
<path d="M105.195 43.2998C105.195 42.4228 104.648 41.7651 103.663 41.7651C102.678 41.7651 102.13 42.4228 102.13 43.2998C102.13 44.1767 102.678 44.8345 103.663 44.8345C104.648 44.8345 105.195 44.2864 105.195 43.2998ZM101.145 43.2998C101.145 42.094 101.802 41.1074 103.553 41.1074C105.305 41.1074 105.961 42.094 105.961 43.2998C105.961 44.5056 105.305 45.4922 103.553 45.4922C101.802 45.4922 101.145 44.5056 101.145 43.2998Z" fill="black"/>
<path d="M107.822 41.2171H108.698V43.5191C108.698 44.0672 108.698 44.8346 109.902 44.8346C110.997 44.8346 111.106 44.1768 111.106 43.5191V41.2171H111.982V43.6287C111.982 44.2865 111.982 45.4923 109.902 45.4923C107.932 45.4923 107.822 44.2865 107.822 43.6287V41.2171Z" fill="black"/>
<path d="M115.047 41.8748H113.514V41.2171H117.455V41.8748H115.923V45.3826H115.047V41.8748Z" fill="black"/>
<path d="M123.147 43.1903H124.57C125.117 43.1903 125.336 43.0806 125.336 42.5325C125.336 41.9844 125.008 41.8748 124.679 41.8748H123.256V43.1903H123.147ZM122.271 41.2171H124.789C125.774 41.2171 126.102 41.8748 126.102 42.5325C126.102 43.1903 125.665 43.848 124.789 43.848H123.037V45.4923H122.162V41.2171H122.271Z" fill="black"/>
<path d="M130.372 43.0806C130.81 43.0806 131.138 42.971 131.138 42.4229C131.138 41.9844 130.81 41.8748 130.372 41.8748H128.839V43.0806H130.372ZM127.964 41.2171H130.591C131.686 41.2171 132.014 41.6556 132.014 42.3133C132.014 42.8614 131.686 43.1903 131.357 43.2999C131.904 43.4095 132.014 43.848 132.014 44.3961C132.014 44.6153 132.014 45.0538 132.233 45.273H131.248C131.138 45.1634 131.138 44.9442 131.138 44.6153C131.138 44.0672 131.029 43.6287 130.372 43.6287H128.839V45.273H127.964V41.2171Z" fill="black"/>
<path d="M133.875 41.2171H134.75V45.3826H133.875V41.2171Z" fill="black"/>
<path d="M136.83 41.2171H137.815L140.333 44.3961V41.2171H141.209V45.3826H140.224L137.706 42.3133V45.3826H136.83V41.2171Z" fill="black"/>
<path d="M144.274 41.8748H142.741V41.2171H146.791V41.8748H145.149V45.3826H144.274V41.8748Z" fill="black"/>
<path d="M148.324 41.2171H149.199V45.3826H148.324V41.2171Z" fill="black"/>
<path d="M151.279 41.2171H152.265L154.782 44.3961V41.2171H155.548V45.3826H154.563L152.155 42.3133H152.046V45.3826H151.279V41.2171Z" fill="black"/>
<path d="M162.007 45.3826H161.459L161.35 44.8345C161.021 45.2729 160.365 45.4922 159.708 45.4922C157.956 45.4922 157.3 44.5056 157.3 43.2998C157.3 42.094 158.066 41.1074 159.708 41.1074C161.021 41.1074 161.788 41.7651 161.897 42.5324H160.912C160.803 41.9843 160.255 41.7651 159.708 41.7651C158.613 41.7651 158.175 42.4228 158.175 43.2998C158.175 44.396 158.942 44.8345 159.598 44.8345C160.474 44.8345 160.912 44.396 161.021 43.7383H159.817V43.0805H161.897V45.3826H162.007Z" fill="black"/>
<path d="M176.894 37.2708H177.989V38.367H176.894V37.2708Z" fill="black"/>
<path d="M182.586 37.0515C182.477 37.49 182.367 37.8189 182.039 38.1477C181.71 38.367 181.272 38.4766 180.616 38.4766C179.959 38.4766 178.536 38.367 178.536 36.7227C178.536 34.9688 179.849 34.9688 180.616 34.9688C181.272 34.9688 182.367 35.0784 182.586 36.3938H181.272C181.272 36.1746 181.053 35.8457 180.616 35.8457C180.178 35.8457 179.849 36.065 179.849 36.8323C179.849 37.49 180.178 37.8189 180.616 37.8189C180.944 37.8189 181.163 37.5996 181.272 37.2708H182.586V37.0515Z" fill="black"/>
<path d="M185.104 37.5996C185.542 37.5996 185.87 37.3803 185.87 36.613C185.87 35.9553 185.542 35.6264 185.104 35.6264C184.666 35.6264 184.337 35.8456 184.337 36.613C184.337 37.3803 184.666 37.5996 185.104 37.5996ZM185.104 34.8591C185.761 34.8591 187.074 34.9687 187.074 36.613C187.074 38.3669 185.761 38.3669 185.104 38.3669C184.447 38.3669 183.133 38.2573 183.133 36.613C183.024 34.9687 184.337 34.8591 185.104 34.8591Z" fill="black"/>
<path d="M187.731 34.9688H189.373L189.92 36.9419L190.358 34.9688H192V38.367H190.905V35.9554L190.358 38.367H189.482L188.826 35.9554V38.367H187.731V34.9688Z" fill="black"/>
<path d="M178.974 26.0896C179.302 26.0896 179.631 26.0896 179.631 25.6511C179.631 25.3222 179.302 25.3222 179.084 25.3222H178.427V26.0896H178.974ZM178.427 27.7339H177.989V24.9934H179.084C179.74 24.9934 180.069 25.2126 180.069 25.7607C180.069 26.3088 179.74 26.4184 179.302 26.5281L180.069 27.7339H179.521L178.755 26.5281H178.427V27.7339ZM178.974 24.226C177.879 24.226 177.004 25.103 177.004 26.3088C177.004 27.405 177.77 28.3916 178.974 28.3916C180.069 28.3916 180.944 27.5146 180.944 26.3088C180.835 25.103 179.959 24.226 178.974 24.226ZM178.974 28.8301C177.551 28.8301 176.566 27.7339 176.566 26.3088C176.566 24.7741 177.66 23.7876 178.974 23.7876C180.288 23.7876 181.382 24.7741 181.382 26.3088C181.382 27.7339 180.288 28.8301 178.974 28.8301Z" fill="black"/>
<path d="M164.306 42.4229C164.525 42.4229 164.634 42.4229 164.634 42.2037C164.634 41.9844 164.525 41.9844 164.306 41.9844H163.977V42.4229H164.306ZM163.977 43.1903H163.758V41.7652H164.306C164.634 41.7652 164.853 41.8748 164.853 42.2037C164.853 42.4229 164.743 42.5325 164.525 42.5325L164.962 43.1903H164.743L164.415 42.6422H164.196V43.1903H163.977ZM164.196 41.4363C163.649 41.4363 163.211 41.8748 163.211 42.4229C163.211 42.971 163.539 43.4095 164.196 43.4095C164.743 43.4095 165.181 42.971 165.181 42.4229C165.181 41.8748 164.743 41.4363 164.196 41.4363ZM164.196 43.7383C163.43 43.7383 162.992 43.1903 162.992 42.4229C162.992 41.6556 163.539 41.2171 164.196 41.2171C164.853 41.2171 165.4 41.7652 165.4 42.4229C165.51 43.1903 164.962 43.7383 164.196 43.7383Z" fill="black"/>
<path d="M63.0514 15.3467C63.0514 15.3467 58.235 12.0581 61.8473 15.8948C65.4596 19.7315 69.4004 26.7471 69.9477 27.7337C70.495 28.7203 72.0275 32.9955 72.3559 33.982C72.6843 34.9686 72.6843 35.736 72.6843 35.736C72.6843 35.736 72.5748 36.7225 72.5748 37.2706C72.5748 37.8187 72.6843 38.2572 72.7937 38.3668C72.9032 38.3668 73.0127 38.3668 73.3411 38.2572C73.56 38.1476 73.8884 37.5995 73.8884 37.5995L73.7789 36.1744L72.6843 32.6666L70.8234 28.3914L68.4152 23.5682L64.5839 17.2102L63.0514 15.3467Z" fill="url(#paint3_linear)"/>
<path d="M78.1573 35.1879C78.2668 36.9418 78.2668 38.6957 78.1573 40.34C78.1573 40.4496 78.1573 40.6689 78.1573 40.7785C78.1573 41.1073 78.0478 41.4362 78.0478 41.7651V41.9843C78.0478 42.5324 77.9384 43.1901 77.8289 43.7382L77.7194 44.1767C77.7194 44.2863 77.7195 44.3959 77.61 44.5056C77.3911 45.4921 77.2816 46.4787 76.7343 47.246L76.6248 47.4653C76.6248 47.5749 76.5153 47.7942 76.4059 47.9038V48.123C76.4059 48.2326 76.4059 48.4519 76.4059 48.5615C76.9532 49.2192 77.7195 48.7807 78.1573 48.3422L78.3762 48.123C78.9236 47.6845 79.4709 47.1364 80.1277 46.698L80.4561 46.4787C81.7696 45.3825 82.9737 44.0671 84.2873 42.8613L84.5062 42.642C85.2725 41.8747 86.0387 41.1073 86.805 40.34L87.0239 40.0112C89.7605 36.8322 92.1687 33.434 93.9201 29.5973L94.0296 29.2684C94.358 28.6107 94.5769 27.953 94.7958 27.2953L94.9053 26.9664C95.2337 26.0895 95.5621 25.3221 95.781 24.4452L95.8905 24.1163C96.3283 22.3624 96.7662 20.7181 96.9851 19.0738C91.1835 24.9933 84.8346 30.4742 78.1573 35.1879Z" fill="#00ADEE"/>
<path d="M77.1724 49V48.7808C77.1724 48.6712 77.2819 48.452 77.3913 48.3423L77.5008 48.0135C78.0481 47.1365 78.267 46.1499 78.3765 45.273C78.3765 45.1634 78.3765 45.0537 78.486 44.9441L78.5954 44.6153C78.7049 44.0672 78.8144 43.5191 78.8144 42.8613V42.6421C78.8144 42.3133 78.9238 41.9844 78.9238 41.6555C78.9238 41.5459 78.9238 41.3267 78.9238 41.2171C79.1428 37.49 78.9238 33.7629 78.0481 30.1455V29.9262C77.7197 28.5012 77.2819 26.7473 77.0629 25.5414L76.9535 25.2126C76.6251 24.5549 76.4062 23.6779 76.5156 23.0202L76.6251 22.6913C78.7049 21.047 81.0037 20.0605 83.0835 18.3065L83.4119 18.0873C86.8052 15.7853 90.3081 13.3737 93.592 11.0716C94.3583 10.5235 95.015 10.0851 95.7813 9.53696L96.2192 9.2081L96.657 9.09848H96.8759L96.9854 9.2081C96.9854 9.09848 96.9854 9.09848 96.9854 8.98886L96.7665 8.76962L96.4381 8.55038H96.2192H96.0002L95.6718 8.76962L95.3434 8.98886C94.5772 9.53696 93.7015 10.0851 92.9352 10.6332C89.6513 12.9352 86.2579 15.2372 82.8645 17.5392L82.5361 17.7584C80.4563 19.5124 78.0481 20.7182 75.9683 22.3625L75.8588 22.6913C75.7494 23.349 75.9683 24.226 76.2967 24.8837L76.4062 25.2126C76.7346 26.4184 77.0629 27.7338 77.2819 29.1589V29.3781C78.1576 32.9956 78.3765 36.8323 78.1576 40.4497C78.1576 40.5593 78.1576 40.7786 78.1576 40.8882C78.1576 41.2171 78.0481 41.5459 78.0481 41.8748V42.094C78.0481 42.6421 77.9387 43.2998 77.8292 43.8479L77.7197 44.1768C77.7197 44.2864 77.7197 44.396 77.6103 44.5056C77.3913 45.4922 77.2819 46.4788 76.7346 47.2461L76.6251 47.4654C76.6251 47.575 76.5156 47.7942 76.4062 47.9039V48.1231C76.4062 48.2327 76.4062 48.452 76.5156 48.5616C76.6251 49 76.844 49 77.1724 49Z" fill="#00ADEE"/>
<path d="M77.3908 48.2326L77.5002 47.9037C77.9381 47.246 78.0476 46.4787 78.2665 45.821L78.4854 44.7248C78.5949 44.3959 78.5949 43.9574 78.5949 43.6286C78.8138 42.0939 78.9233 40.5592 78.9233 39.1342C79.0327 36.0648 78.7044 33.1051 78.157 30.0357C78.9233 32.9955 79.2517 36.0648 79.2517 39.1342C79.2517 40.6688 79.1422 42.2035 78.9233 43.7382C78.8138 44.0671 78.8138 44.5055 78.7044 44.8344L78.4854 45.9306C78.2665 46.6979 78.0476 47.4653 77.6097 48.0134L77.3908 48.2326Z" fill="white"/>
<path fill-rule="evenodd" clip-rule="evenodd" d="M77.0629 22.2528C76.9535 22.3625 76.844 22.4721 76.6251 22.5817C76.5156 22.6913 76.2967 22.8009 76.1872 22.6913V22.5817C76.0778 22.6913 76.0778 22.9106 76.1872 23.0202H76.2967H76.4061L76.6251 23.1298V23.2394C76.6251 23.349 76.7345 23.5683 76.844 23.6779L76.7345 23.349V23.1298V23.0202L76.844 22.9106C76.844 22.4721 77.0629 22.3625 77.0629 22.2528Z" fill="white"/>
<path fill-rule="evenodd" clip-rule="evenodd" d="M96.547 9.09848L85.7101 16.443L96.547 8.76962L96.766 8.87924V8.98886L96.547 9.09848Z" fill="white"/>
<path d="M69.7283 14.7987H69.5093C69.7283 15.3468 69.9472 15.8949 70.2756 16.443C70.1661 15.7853 69.8377 15.4564 69.7283 14.7987Z" fill="white"/>
<path fill-rule="evenodd" clip-rule="evenodd" d="M90.1987 3.39826L77.7198 10.3043L88.6662 4.49445L90.746 3.17902L90.1987 3.39826Z" fill="white"/>
<path fill-rule="evenodd" clip-rule="evenodd" d="M59.7673 9.53697L60.0957 9.75621H60.2052H60.3146H60.4241L60.7525 9.64659H60.862L61.0809 9.53697H61.1904C62.285 8.98887 63.3796 8.66001 64.3648 8.22153H64.4743H64.5837H64.6932C65.2405 8.00229 65.8973 7.78305 66.4446 7.56381C66.5541 7.56381 66.6636 7.4542 66.773 7.4542C66.992 7.34458 67.3204 7.23496 67.5393 7.12534C67.3204 7.23496 67.1014 7.34458 66.8825 7.4542L66.5541 7.67343C66.0068 7.89267 65.5689 8.11191 65.0216 8.33115H64.9121L64.5837 8.44077H64.4743C63.3796 8.87925 62.1755 9.42735 61.1904 9.75621H61.0809C60.862 9.86583 60.7525 10.0851 60.7525 10.4139V10.5235C60.862 10.962 61.2998 11.1813 61.4093 11.7294C60.9714 11.1813 60.862 10.6332 60.4241 10.1947H60.3146H60.2052H60.0957L59.8768 10.3043C59.7673 10.1947 59.8768 10.0851 59.9862 9.97545L59.7673 9.53697Z" fill="white"/>
<path opacity="0.49" d="M67.3204 22.6913C66.6636 21.5951 65.4595 19.9508 64.6932 19.5123C67.6488 22.9105 67.7582 23.8971 69.1813 26.1991C68.6339 24.9933 67.9772 23.7875 67.3204 22.6913Z" fill="url(#paint4_linear)"/>
</g>
<defs>
<linearGradient id="paint0_linear" x1="67.5525" y1="19.1265" x2="79.2292" y2="22.9407" gradientUnits="userSpaceOnUse">
<stop stop-color="#DF629C"/>
<stop offset="1" stop-color="#C30075"/>
</linearGradient>
<linearGradient id="paint1_linear" x1="71.9923" y1="14.0781" x2="79.186" y2="-6.06676" gradientUnits="userSpaceOnUse">
<stop stop-color="#FFF100"/>
<stop offset="1" stop-color="#DCAE0B"/>
</linearGradient>
<linearGradient id="paint2_linear" x1="79.3447" y1="19.6302" x2="87.384" y2="29.6116" gradientUnits="userSpaceOnUse">
<stop stop-color="#7BD2F6"/>
<stop offset="1" stop-color="#00ADEE"/>
</linearGradient>
<linearGradient id="paint3_linear" x1="67.1364" y1="37.6558" x2="67.1364" y2="21.4287" gradientUnits="userSpaceOnUse">
<stop stop-color="#333333"/>
<stop offset="1"/>
</linearGradient>
<linearGradient id="paint4_linear" x1="64.6236" y1="22.82" x2="69.0652" y2="22.82" gradientUnits="userSpaceOnUse">
<stop stop-color="white"/>
<stop offset="1" stop-color="#333333"/>
</linearGradient>
<clipPath id="clip0">
<rect width="192" height="49" fill="white"/>
</clipPath>
</defs>
</svg>
